<svg width="48" height="48" viewBox="0 0 48 48" fill="none" xmlns="http://www.w3.org/2000/svg">
<path d="M32 8.5C32 10.98 29.98 13 27.5 13H20.5C19.26 13 18.14 12.5 17.32 11.68C16.5 10.86 16 9.74 16 8.5C16 6.02 18.02 4 20.5 4H27.5C28.74 4 29.86 4.5 30.68 5.32C31.5 6.14 32 7.26 32 8.5Z" fill="white"/>
<path d="M37.66 10.0604C37.2 9.68041 36.68 9.38041 36.12 9.16041C35.54 8.94041 34.96 9.40041 34.84 10.0004C34.16 13.4204 31.14 16.0004 27.5 16.0004H20.5C18.5 16.0004 16.62 15.2204 15.2 13.8004C14.16 12.7604 13.44 11.4404 13.16 10.0204C13.04 9.42041 12.44 8.94041 11.86 9.18041C9.54 10.1204 8 12.2404 8 16.5004V36.0004C8 42.0004 11.58 44.0004 16 44.0004H32C36.42 44.0004 40 42.0004 40 36.0004V16.5004C40 13.2404 39.1 11.2404 37.66 10.0604ZM16 24.5004H24C24.82 24.5004 25.5 25.1804 25.5 26.0004C25.5 26.8204 24.82 27.5004 24 27.5004H16C15.18 27.5004 14.5 26.8204 14.5 26.0004C14.5 25.1804 15.18 24.5004 16 24.5004ZM32 35.5004H16C15.18 35.5004 14.5 34.8204 14.5 34.0004C14.5 33.1804 15.18 32.5004 16 32.5004H32C32.82 32.5004 33.5 33.1804 33.5 34.0004C33.5 34.8204 32.82 35.5004 32 35.5004Z" fill="white"/>
</svg>
