<svg width="24" height="25" viewBox="0 0 24 25" fill="none" xmlns="http://www.w3.org/2000/svg">
<path d="M20.422 11.6922H19.1832L18.3789 9.18901C18.1399 8.44878 17.6397 7.83952 17.0095 7.46924C16.7922 8.10078 16.4661 8.6665 16.053 9.16741C16.2703 9.2977 16.4442 9.51541 16.5093 9.77667L17.4443 12.7153C17.4878 12.8459 17.3791 12.9766 17.2488 12.9766H6.53113C6.40085 12.9766 6.29216 12.8463 6.3357 12.7153L7.27033 9.82021C7.35742 9.5809 7.50931 9.36318 7.72668 9.21095C7.31388 8.71038 6.98782 8.14432 6.79205 7.49118C6.16153 7.86147 5.66165 8.47072 5.42233 9.21095L4.61799 11.7138H3.37856C2.83513 11.7142 2.40039 12.1496 2.40039 12.694V13.2382C2.40039 13.7823 2.83513 14.2177 3.37856 14.2177H3.72656C3.53113 15.1321 3.4221 16.0462 3.4221 16.9606V21.6406C3.4221 22.1847 3.85685 22.6201 4.40028 22.6201H6.03091C6.57433 22.6201 7.00908 22.1847 7.00908 21.6406V20.1388H16.7918V21.6406C16.7918 22.1847 17.2266 22.6201 17.77 22.6201H19.4003C19.9437 22.6201 20.3788 22.1847 20.3788 21.6406V16.9383C20.3788 16.0242 20.2701 15.0882 20.0743 14.1954H20.422C20.9658 14.1954 21.4005 13.76 21.4005 13.2162V12.6718C21.3786 12.1276 20.9438 11.6922 20.422 11.6922ZM8.40039 17.4608H6.4221C6.09605 17.4608 5.83513 17.1995 5.83513 16.8731V15.9371C5.83513 15.5668 6.16119 15.284 6.53113 15.3495L8.35685 15.6539C8.59616 15.6975 8.79159 15.8716 8.85708 16.1113L8.98736 16.7422C9.05251 17.1124 8.76999 17.4608 8.40039 17.4608ZM17.9658 16.8731C17.9658 17.1995 17.7048 17.4608 17.3568 17.4608H15.4005C15.009 17.4608 14.7264 17.1124 14.8135 16.7425L14.9438 16.1113C14.9874 15.8716 15.1831 15.6975 15.4221 15.6539L17.2701 15.3495C17.6394 15.2843 17.9658 15.5668 17.9658 15.9371V16.8731Z" fill="#221E1F"/>
<path d="M11.9005 9.60211C14.0091 9.60211 15.7268 7.88268 15.7268 5.77103C15.7268 3.65971 14.0091 1.93994 11.9005 1.93994C9.79193 1.93994 8.07422 3.65971 8.07422 5.77103C8.07422 7.88268 9.79193 9.60211 11.9005 9.60211ZM9.46588 5.77103C9.46588 5.35754 9.57456 4.96566 9.77033 4.61731L13.0528 7.90428C12.7048 8.1004 12.3136 8.20908 11.9008 8.20908C10.5527 8.20908 9.46588 7.12086 9.46588 5.77137V5.77103ZM14.3355 5.77103C14.3355 6.18451 14.2268 6.57674 14.031 6.92474L10.7485 3.63777C11.0962 3.442 11.4877 3.33297 11.9005 3.33297C13.2483 3.33297 14.3355 4.42154 14.3355 5.77103Z" fill="#FF8F4E"/>
</svg>
