<svg width="24" height="25" viewBox="0 0 24 25" fill="none" xmlns="http://www.w3.org/2000/svg">
<g clip-path="url(#clip0_155_2922)">
<path d="M17.5068 5.31494C18.4876 5.72452 19.2662 6.55232 19.6042 7.61658L20.554 10.6067H22.0215C22.6549 10.6067 23.2018 11.158 23.144 11.7969V12.4646C23.144 13.1031 22.6258 13.6256 21.9928 13.6256H21.5899C21.8201 14.7288 21.9641 15.8321 21.9641 16.9353V22.5674C21.9641 23.2064 21.4459 23.7288 20.8129 23.7288H18.8559C18.2228 23.7288 17.705 23.2064 17.705 22.5674V20.7387H6.02098V22.5674C6.02098 23.2064 5.50321 23.7288 4.86977 23.7288H2.9419C2.30846 23.7288 1.79069 23.2064 1.79069 22.5674V16.9065C1.79069 15.7742 1.90597 14.671 2.13613 13.5969H1.73324C1.0998 13.5969 0.582031 13.0744 0.582031 12.4355V11.7682C0.582031 11.1296 1.1002 10.6067 1.73324 10.6067H3.20079L4.15056 7.61658C4.48577 6.56176 5.25416 5.73868 6.22361 5.32556L6.22321 8.7855L5.24393 11.8264C5.19042 11.961 5.28603 12.1207 5.43829 12.1431L5.4741 12.1455H18.2807C18.453 12.1455 18.5683 11.9716 18.5108 11.8264L17.5064 8.70838L17.5068 5.31494ZM5.44498 15.0192C5.01338 14.9323 4.61088 15.2804 4.61088 15.716V16.8483C4.61088 17.2547 4.92721 17.5742 5.3301 17.5742H7.68997C8.12157 17.5742 8.46662 17.1387 8.38046 16.674L8.20774 15.9194C8.15029 15.629 7.92013 15.4256 7.63213 15.3678L5.44498 15.0192ZM19.0856 15.7451C19.0856 15.3096 18.6831 14.9905 18.2515 15.0487L16.064 15.3969C15.7768 15.4256 15.5462 15.6582 15.4888 15.9485L15.3448 16.7031C15.2295 17.1674 15.575 17.5742 16.0353 17.5742H18.3951C18.798 17.5742 19.1148 17.2547 19.1148 16.8483H19.086L19.0856 15.7451Z" fill="#221E1F"/>
<path d="M11.8652 6.48249C12.6629 6.48249 13.3096 5.8332 13.3096 5.03226C13.3096 4.23132 12.6629 3.58203 11.8652 3.58203C11.0675 3.58203 10.4209 4.23132 10.4209 5.03226C10.4209 5.8332 11.0675 6.48249 11.8652 6.48249Z" fill="#FF8F4E"/>
<path d="M10.5109 0.5L9.68468 1.40649H8.25451C7.7576 1.40649 7.35156 1.81449 7.35156 2.31298V7.75193C7.35156 8.25043 7.7576 8.65843 8.25412 8.65843H15.4754C15.9719 8.65843 16.3779 8.25043 16.3779 7.75193V2.31298C16.3779 1.81449 15.9719 1.40649 15.4754 1.40649H14.0448L13.2186 0.5H10.5109ZM11.8647 7.29869C10.6191 7.29869 9.60835 6.28361 9.60835 5.03246C9.60835 3.78131 10.6195 2.76623 11.8647 2.76623C13.1104 2.76623 14.1215 3.78131 14.1215 5.03246C14.1215 6.28361 13.1104 7.29869 11.8647 7.29869Z" fill="#FF8F4E"/>
</g>
<defs>
<clipPath id="clip0_155_2922">
<rect width="23.2131" height="24" fill="white" transform="translate(0.393555 0.5)"/>
</clipPath>
</defs>
</svg>
