<svg width="24" height="25" viewBox="0 0 24 25" fill="none" xmlns="http://www.w3.org/2000/svg">
<g clip-path="url(#clip0_155_2902)">
<path d="M19.1605 13.5425V9.33606C19.1605 8.51904 19.0723 7.70203 18.8955 6.88535H19.1903C19.6618 6.88535 20.0448 6.49155 20.0448 6.00749V5.52344C20.0448 5.03904 19.6618 4.64558 19.1903 4.64558H18.0998L17.3923 2.40648C17.0387 1.25651 16.0071 0.5 14.8284 0.5H8.6979C7.51919 0.5 6.48753 1.25651 6.13395 2.40648L5.42646 4.64558H4.33598C3.86443 4.64558 3.48145 5.03904 3.48145 5.52344V6.00749C3.48145 6.49155 3.86443 6.88501 4.33598 6.88501H4.63074C4.45395 7.70203 4.36573 8.51904 4.36573 9.33606V13.5425C4.36573 14.0265 4.74871 14.42 5.22026 14.42H6.63525C7.1068 14.42 7.49012 14.0265 7.49012 13.5425V12.2106H16.0368V13.5425C16.0368 14.0265 16.4202 14.42 16.8917 14.42H18.3063C18.7779 14.42 19.1605 14.0265 19.1605 13.5425ZM7.7548 2.9507C7.87311 2.52715 8.25609 2.2547 8.6979 2.2547H14.8578C15.2999 2.2547 15.6829 2.52715 15.8009 2.95104L16.626 5.55318C16.6554 5.6742 16.5672 5.79521 16.4492 5.79521H7.10646C6.98849 5.79521 6.90026 5.6742 6.92967 5.55318L7.7548 2.9507ZM8.72764 9.82011H6.98849C6.69407 9.82011 6.45812 9.57808 6.45812 9.27521V8.42811C6.45812 8.09515 6.75288 7.85313 7.07705 7.91363L8.66849 8.18608C8.87469 8.21617 9.05181 8.39769 9.08088 8.60963L9.19919 9.18428C9.28742 9.48715 9.05181 9.81977 8.72764 9.81977V9.82011ZM17.0682 9.27521C17.0682 9.57808 16.8322 9.82011 16.5374 9.82011H14.8284C14.5039 9.82011 14.2389 9.51724 14.3271 9.18462L14.4454 8.60963C14.5042 8.39769 14.6516 8.21617 14.8578 8.18608L16.4492 7.91363C16.7737 7.85279 17.0682 8.12524 17.0682 8.42811V9.27521Z" fill="#221E1F"/>
<path d="M11.4964 15.3799L11.2892 17.9117H12.7103L12.5031 15.3799H17.4173C17.7134 15.3799 17.9798 15.5567 18.0687 15.8508L20.5181 24.5002H3.48145L5.93114 15.8508C6.01429 15.6026 6.25361 15.4059 6.52708 15.3822L6.58218 15.3799H11.4964ZM12.8286 19.1776H11.2007L10.9045 22.681H13.1247L12.8286 19.1776Z" fill="#FF8F4E"/>
</g>
<defs>
<clipPath id="clip0_155_2902">
<rect width="23.662" height="24" fill="white" transform="translate(0.168945 0.5)"/>
</clipPath>
</defs>
</svg>
