<svg width="32" height="33" viewBox="0 0 32 33" fill="none" xmlns="http://www.w3.org/2000/svg">
<g clip-path="url(#clip0_155_2846)">
<path d="M24.5301 17.3821H23.2973L22.5 14.8487C22.0892 13.5452 20.9048 12.6597 19.5515 12.6597H17.739V14.652H19.5515C20.0349 14.652 20.494 14.9964 20.6393 15.4636L21.5815 18.4153C21.6298 18.5381 21.5332 18.6858 21.3882 18.6858H10.6338C10.4888 18.6858 10.3922 18.5381 10.4405 18.4153L11.3831 15.4636C11.528 14.9718 11.9628 14.652 12.4705 14.652H14.283V12.6597H12.4705C11.1172 12.6597 9.93308 13.5449 9.52196 14.8487L8.72466 17.3821H7.49162C6.96051 17.3821 6.52539 17.8247 6.52539 18.3661V18.9318C6.52539 19.4729 6.96051 19.9155 7.49194 19.9155H7.83043C7.63718 20.8256 7.54056 21.7603 7.54056 22.7194V27.5157C7.54056 28.0571 7.97536 28.4997 8.5071 28.4997H10.1263C10.6581 28.4997 11.0929 28.0571 11.0929 27.5157V25.9663H20.9048V27.5157C20.9048 28.0571 21.3399 28.4997 21.8717 28.4997H23.5149C24.0466 28.4997 24.4818 28.0571 24.4818 27.5157V22.744C24.4818 21.8096 24.3608 20.8748 24.1676 19.9401H24.5058C25.0375 19.9401 25.4726 19.4975 25.4726 18.9564V18.3907C25.5209 17.8496 25.0618 17.3821 24.5301 17.3821ZM12.4948 23.2854H10.5131C10.1746 23.2854 9.90877 23.0146 9.90877 22.6705V21.7111C9.90877 21.3421 10.2473 21.0472 10.6098 21.1208L12.4462 21.4159C12.6881 21.4652 12.8813 21.6372 12.9297 21.8835L13.0746 22.5227C13.1472 22.9164 12.8573 23.2854 12.4948 23.2854ZM22.0892 22.6705C22.0892 23.0146 21.8234 23.2851 21.4849 23.2851H19.5032C19.1167 23.2851 18.8268 22.941 18.9234 22.5474L19.044 21.9078C19.0924 21.6618 19.2856 21.4652 19.5272 21.4406L21.3642 21.1454C21.7267 21.0961 22.0649 21.3667 22.0649 21.7357V22.6705H22.0892Z" fill="#221E1F"/>
<path d="M16.0133 4.97998C16.3362 4.97998 16.6155 5.21936 16.6401 5.55318L16.642 5.60118V5.98362C20.3963 6.21988 23.323 8.53634 23.5739 11.5466L23.5814 11.647V11.8144C23.5814 11.9817 23.4848 12.1488 23.3155 12.1968C23.1463 12.2445 22.9527 12.1968 22.8561 12.0534C22.5176 11.5753 22.0099 11.3126 21.4535 11.3126C20.8488 11.3126 20.2931 11.6233 19.9786 12.1488C19.906 12.2685 19.7854 12.3639 19.6401 12.3402C19.4952 12.3402 19.3742 12.2685 19.3016 12.1488C18.9874 11.6233 18.4311 11.3126 17.8267 11.3126C17.396 11.3126 17.0079 11.4597 16.7018 11.734L16.642 11.7904L16.6417 13.4632H16.627V16.8388C16.627 17.158 16.3627 17.4338 16.0442 17.4581L15.9984 17.46C15.6599 17.46 15.3697 17.1732 15.3697 16.8388V11.7767L15.3242 11.734C15.0365 11.4777 14.6618 11.3328 14.2813 11.3144L14.1999 11.3126C13.5952 11.3126 13.0392 11.6233 12.7247 12.1488C12.6524 12.2685 12.5314 12.3402 12.3862 12.3402C12.2413 12.3402 12.1203 12.2685 12.0477 12.1488C11.7335 11.647 11.1775 11.3126 10.5728 11.3126C10.0167 11.3126 9.509 11.5993 9.1702 12.0534C9.04957 12.1968 8.88033 12.2445 8.71108 12.1968C8.55492 12.1526 8.43991 12.0067 8.42308 11.853L8.4209 11.8144V11.695C8.61228 8.59899 11.4761 6.27411 15.2347 5.99234L15.3603 5.98362V5.60118C15.3603 5.26673 15.6505 4.97998 16.0136 4.97998H16.0133Z" fill="#FF8F4E"/>
</g>
<defs>
<clipPath id="clip0_155_2846">
<rect width="23.6883" height="24" fill="white" transform="translate(4.15625 4.5)"/>
</clipPath>
</defs>
</svg>
