<svg width="32" height="33" viewBox="0 0 32 33" fill="none" xmlns="http://www.w3.org/2000/svg">
<path fill-rule="evenodd" clip-rule="evenodd" d="M24.4778 16.2594H23.2393L22.4353 13.7574C22.1962 13.0178 21.6963 12.4087 21.0663 12.0386C20.8491 12.6695 20.5232 13.2354 20.1101 13.7356C20.3274 13.8664 20.5017 14.0839 20.5664 14.3451L21.5008 17.2819C21.5444 17.4127 21.4358 17.5431 21.3051 17.5431H10.5938C10.4631 17.5431 10.3547 17.4127 10.398 17.2819L11.3324 14.3884C11.4193 14.1493 11.5715 13.9317 11.7887 13.7792C11.376 13.2787 11.0498 12.7131 10.854 12.0604C10.2243 12.4305 9.72442 13.0393 9.48537 13.7792L8.68169 16.2812H7.44221C6.89905 16.2812 6.46484 16.7164 6.46484 17.2602V17.8043C6.46484 18.348 6.89937 18.7832 7.44221 18.7832H7.7899C7.59442 19.6971 7.48579 20.611 7.48579 21.5246V26.2024C7.48579 26.7465 7.92032 27.1813 8.46379 27.1813H10.0933C10.6364 27.1813 11.0709 26.7465 11.0709 26.2024V24.7011H20.8487V26.2024C20.8487 26.7465 21.2833 27.1813 21.8267 27.1813H23.4562C23.9994 27.1813 24.4339 26.7465 24.4339 26.2024V21.5031C24.4339 20.5892 24.3253 19.6535 24.1298 18.7614H24.4772C25.0203 18.7614 25.4552 18.3263 25.4552 17.7825V17.239C25.4331 16.6952 24.9988 16.26 24.4775 16.26L24.4778 16.2594ZM12.462 22.0248H10.4845C10.1586 22.0248 9.89811 21.7639 9.89811 21.4374V20.502C9.89811 20.1323 10.224 19.8493 10.5935 19.9147L12.4184 20.2194C12.6575 20.263 12.8529 20.437 12.9183 20.6764L13.0487 21.307C13.1138 21.6771 12.8315 22.0248 12.462 22.0248ZM22.0225 21.4374C22.0225 21.7639 21.7617 22.0248 21.414 22.0248H19.458C19.0671 22.0248 18.7844 21.6771 18.8716 21.307L19.0017 20.6764C19.0453 20.437 19.2407 20.2627 19.4798 20.2194L21.3268 19.9147C21.6963 19.8493 22.0222 20.1323 22.0222 20.502V21.4377L22.0225 21.4374Z" fill="#221E1F"/>
<path fill-rule="evenodd" clip-rule="evenodd" d="M11.8085 10.8842L12.3984 10.9277C12.4855 10.9277 12.5733 10.9928 12.5951 11.0793C12.6608 11.3399 12.77 11.5783 12.9011 11.7955C12.9447 11.8824 12.9447 11.9692 12.879 12.0557L12.4855 12.4896C12.3327 12.6633 12.3327 12.9453 12.5076 13.119L12.9665 13.5747C13.1414 13.7484 13.4256 13.7484 13.6003 13.5965L14.0373 13.2059C14.1027 13.1408 14.2123 13.1408 14.2994 13.1841C14.5397 13.3142 14.7804 13.4228 15.0207 13.4879C15.1081 13.51 15.1735 13.5965 15.1735 13.683L15.2174 14.2691C15.2392 14.5079 15.4359 14.703 15.6763 14.703H16.31C16.55 14.703 16.7471 14.5079 16.7689 14.2691L16.8125 13.683C16.8125 13.5965 16.8781 13.5096 16.9656 13.4879C17.2277 13.401 17.468 13.3142 17.6866 13.1841C17.774 13.1408 17.8833 13.1408 17.9487 13.2059L18.386 13.5965C18.5607 13.7481 18.8446 13.7481 19.0195 13.5747L19.4784 13.119C19.6533 12.9453 19.6533 12.6633 19.5005 12.4896L19.107 12.0557C19.0413 11.9907 19.0195 11.8824 19.0852 11.7955C19.2163 11.5568 19.3255 11.3399 19.3912 11.0793C19.413 10.9928 19.5005 10.9277 19.5879 10.9277L20.1121 10.8842C20.3525 10.8842 20.5492 10.6672 20.5492 10.4285V9.79943C20.5492 9.56069 20.3525 9.36522 20.1121 9.34374L19.5223 9.32196C19.4348 9.32196 19.3473 9.23511 19.3255 9.14827C19.2601 8.88806 19.1509 8.64932 19.0195 8.43238C18.9759 8.34585 18.9759 8.23722 19.0416 8.17185L19.4348 7.73796C19.5879 7.56459 19.5879 7.28259 19.4127 7.1089L18.9541 6.65322C18.7795 6.47953 18.4953 6.47953 18.3204 6.63143L17.8833 7.02206C17.8179 7.08711 17.7087 7.1089 17.6212 7.04353C17.4027 6.91374 17.162 6.80511 16.8999 6.74006C16.8125 6.71827 16.7471 6.63143 16.7471 6.54459L16.7032 5.9588C16.6814 5.72006 16.4847 5.5249 16.2444 5.5249H15.6106C15.3703 5.5249 15.1735 5.72006 15.152 5.9588L15.1078 6.54459C15.1078 6.63143 15.0425 6.71827 14.9553 6.74006C14.6932 6.80511 14.4526 6.91374 14.2337 7.04353C14.1466 7.08711 14.0591 7.08711 13.9716 7.02206L13.5352 6.63174C13.3603 6.48017 13.076 6.48017 12.9014 6.65385L12.4423 7.10859C12.2673 7.28227 12.2673 7.56427 12.4201 7.73764L12.8136 8.17153C12.879 8.2369 12.879 8.34522 12.8357 8.43206C12.7044 8.64901 12.5951 8.88774 12.5294 9.14796C12.5073 9.2348 12.4201 9.30017 12.3327 9.32164L11.8085 9.34374C11.5678 9.3649 11.3711 9.56038 11.3711 9.79911V10.4282C11.3711 10.6887 11.5678 10.8838 11.8085 10.8838M15.9605 8.56248C16.8346 8.56248 17.5337 9.27838 17.5337 10.1244C17.5337 10.9925 16.8346 11.6866 15.9605 11.6866C15.0864 11.6866 14.3869 10.9925 14.3869 10.1244C14.3869 9.25659 15.0864 8.56248 15.9605 8.56248Z" fill="#FF8F4E"/>
</svg>
