<svg width="30" height="31" viewBox="0 0 30 31" fill="none" xmlns="http://www.w3.org/2000/svg">
<g clip-path="url(#clip0_155_2778)">
<g clip-path="url(#clip1_155_2778)">
<path fill-rule="evenodd" clip-rule="evenodd" d="M17.8246 6.14845L27.7151 25.9295C27.9559 26.411 28.0696 26.946 28.0454 27.4838C28.0212 28.0216 27.8599 28.5442 27.5769 29.0021C27.2939 29.4601 26.8985 29.838 26.4283 30.1001C25.9581 30.3622 25.4287 30.4998 24.8904 30.4998H5.10935C4.57104 30.4998 4.04164 30.3622 3.57144 30.1001C3.10125 29.838 2.70587 29.4601 2.42284 29.0021C2.13982 28.5442 1.97856 28.0216 1.95436 27.4838C1.93017 26.946 2.04385 26.411 2.28462 25.9295L12.1751 6.14845C12.4374 5.62378 12.8405 5.18251 13.3395 4.87411C13.8384 4.5657 14.4133 4.40234 14.9999 4.40234C15.5864 4.40234 16.1614 4.5657 16.6603 4.87411C17.1592 5.18251 17.5624 5.62378 17.8246 6.14845Z" fill="#EC1C24"/>
<path d="M15.3949 11.5522C16.0462 11.5522 16.6422 11.9201 16.9328 12.5028L22.7133 24.063C22.8443 24.3253 22.9062 24.6167 22.893 24.9096C22.8797 25.2025 22.7919 25.4871 22.6377 25.7365C22.4836 25.9859 22.2682 26.1917 22.0122 26.3345C21.7561 26.4773 21.4678 26.5522 21.1746 26.5522H9.61434C9.32114 26.5523 9.0328 26.4774 8.77671 26.3346C8.52063 26.1918 8.3053 25.986 8.1512 25.7365C7.99709 25.4871 7.90933 25.2024 7.89624 24.9095C7.88316 24.6166 7.94519 24.3252 8.07644 24.063L13.8562 12.5028C13.9991 12.2171 14.2188 11.9769 14.4905 11.809C14.7623 11.6411 15.0754 11.5522 15.3949 11.5522ZM15.3949 12.6236C15.2742 12.6221 15.1557 12.6551 15.053 12.7186C14.9504 12.782 14.868 12.8734 14.8154 12.982L9.03487 24.5422C8.98508 24.641 8.96145 24.751 8.96622 24.8615C8.97099 24.972 9.00401 25.0795 9.06212 25.1736C9.12024 25.2678 9.20151 25.3454 9.29818 25.3992C9.39486 25.453 9.50371 25.4812 9.61434 25.4809H21.1746C21.2852 25.4811 21.394 25.4529 21.4907 25.3991C21.5873 25.3453 21.6686 25.2677 21.7268 25.1736C21.785 25.0795 21.8181 24.9721 21.823 24.8616C21.8279 24.7511 21.8044 24.6411 21.7549 24.5422L15.9743 12.982C15.9217 12.8735 15.8392 12.7821 15.7366 12.7187C15.634 12.6552 15.5155 12.6222 15.3949 12.6236ZM15.3949 22.6049C15.7089 22.6049 16.0101 22.7296 16.2322 22.9517C16.4543 23.1738 16.5791 23.475 16.5791 23.7891C16.5791 24.1032 16.4543 24.4044 16.2322 24.6265C16.0101 24.8485 15.7089 24.9733 15.3949 24.9733C15.0808 24.9733 14.7796 24.8485 14.5575 24.6265C14.3354 24.4044 14.2107 24.1032 14.2107 23.7891C14.2107 23.475 14.3354 23.1738 14.5575 22.9517C14.7796 22.7296 15.0808 22.6049 15.3949 22.6049ZM15.968 16.2891C16.1417 16.2891 16.3083 16.3562 16.4243 16.4746C16.5404 16.5922 16.5949 16.7494 16.5743 16.9057L16.002 21.3267C15.9657 21.6054 15.7051 21.8154 15.3949 21.8154C15.0846 21.8154 14.8241 21.6054 14.7878 21.3267L14.2146 16.9057C14.2051 16.8271 14.2136 16.7475 14.2396 16.6728C14.2656 16.598 14.3084 16.5303 14.3646 16.4746C14.4249 16.4149 14.4964 16.3678 14.575 16.336C14.6536 16.3041 14.7377 16.2882 14.8225 16.2891H15.968Z" fill="white"/>
</g>
</g>
<defs>
<clipPath id="clip0_155_2778">
<rect width="30" height="30" fill="white" transform="translate(0 0.5)"/>
</clipPath>
<clipPath id="clip1_155_2778">
<rect width="30" height="30" fill="white" transform="translate(0 0.5)"/>
</clipPath>
</defs>
</svg>
