<svg width="32" height="33" viewBox="0 0 32 33" fill="none" xmlns="http://www.w3.org/2000/svg">
<path fill-rule="evenodd" clip-rule="evenodd" d="M13.7079 14.3485H18.631C18.9894 14.3485 19.2575 14.0464 19.2575 13.698V9.72332C19.2575 9.35148 18.9667 9.07283 18.631 9.07283H18.1834V8.09662C18.1834 6.93434 17.2882 6.00488 16.1696 6.00488C15.0506 6.00488 14.1551 6.93434 14.1551 8.09662V9.07283H13.7079C13.3497 9.07283 13.0811 9.37517 13.0811 9.72332V13.698C13.0811 14.0698 13.3497 14.3485 13.7075 14.3485H13.7079ZM16.5498 11.6524V12.6286C16.5498 12.8611 16.3709 13.0469 16.1471 13.0469C15.923 13.0469 15.7441 12.8611 15.7441 12.6286V11.6527C15.5877 11.5364 15.4758 11.3273 15.4758 11.1178C15.4758 10.746 15.7666 10.4209 16.1471 10.4209C16.505 10.4209 16.8182 10.7232 16.8182 11.1178C16.8406 11.3503 16.7287 11.5361 16.5498 11.6524ZM15.4309 8.07356C15.4309 7.65496 15.7666 7.30649 16.1696 7.30649C16.572 7.30649 16.908 7.65496 16.908 8.07325V9.04945H15.4309V8.07356Z" fill="#FF8F4E"/>
<path fill-rule="evenodd" clip-rule="evenodd" d="M24.3925 15.0932H23.1613L22.369 12.5788C22.0561 11.5135 21.2008 10.7461 20.1782 10.5117V12.6427C20.3452 12.7705 20.4705 12.9625 20.5329 13.1969L21.472 16.138C21.5138 16.2658 21.4093 16.4151 21.2632 16.4151H10.6642C10.5183 16.4151 10.4139 16.2658 10.4554 16.138L11.3736 13.1757C11.4362 12.9625 11.5824 12.7705 11.7283 12.6427V10.5117C10.706 10.7461 9.87126 11.5135 9.53744 12.5788L8.7445 15.0932H7.53422C6.99188 15.0932 6.57422 15.5411 6.57422 16.0738V16.628C6.57422 17.1818 7.01276 17.6082 7.53422 17.6082H7.86804C7.65921 18.5246 7.57598 19.441 7.57598 20.3791V25.1315C7.57598 25.6856 8.01422 26.1117 8.53598 26.1117H10.1421C10.6848 26.1117 11.1021 25.6641 11.1021 25.1315V23.6182H20.8037V25.1315C20.8037 25.6856 21.2211 26.1117 21.7637 26.1117H23.3702C23.9125 26.1117 24.3299 25.6641 24.3299 25.1315V20.3788C24.3299 19.4413 24.2254 18.5246 24.0375 17.6082H24.3922C24.9348 17.6082 25.3522 17.1607 25.3522 16.628V16.0738C25.3522 15.5196 24.9143 15.0932 24.3925 15.0932ZM12.5003 20.9115H10.5389C10.226 20.9115 9.95479 20.6344 9.95479 20.2937V19.3559C9.95479 18.9934 10.2677 18.7166 10.6436 18.7593L12.4586 19.0576C12.7089 19.1 12.8968 19.292 12.9386 19.5264L13.0639 20.1656C13.1471 20.5493 12.8759 20.9115 12.5003 20.9115ZM21.9726 20.2937C21.9726 20.6344 21.7014 20.9115 21.3679 20.9115H19.4273C19.0517 20.9115 18.7802 20.5493 18.8429 20.1656L18.9682 19.5264C19.01 19.2708 19.2185 19.1 19.4482 19.0576L21.2635 18.7593C21.6182 18.6951 21.9517 18.9934 21.9517 19.3559V20.2937H21.9726Z" fill="#221E1F"/>
</svg>
