<svg width="32" height="33" viewBox="0 0 32 33" fill="none" xmlns="http://www.w3.org/2000/svg">
<mask id="mask0_155_2743" style="mask-type:luminance" maskUnits="userSpaceOnUse" x="14" y="8" width="4" height="3">
<path d="M14.583 8.17188H17.303V10.8919H14.583V8.17188Z" fill="white"/>
</mask>
<g mask="url(#mask0_155_2743)">
<path fill-rule="evenodd" clip-rule="evenodd" d="M15.943 10.8919C16.693 10.8919 17.303 10.2819 17.303 9.53188C17.303 8.78254 16.693 8.17188 15.943 8.17188C15.194 8.17188 14.583 8.78254 14.583 9.53188C14.583 10.2819 15.1937 10.8919 15.943 10.8919Z" fill="#FF8F4E"/>
</g>
<path fill-rule="evenodd" clip-rule="evenodd" d="M21.2854 12.2526C22.0347 12.2526 22.6454 11.6419 22.6454 10.8926C22.6454 10.1426 22.0347 9.53223 21.2854 9.53223C20.5357 9.53223 19.9254 10.1426 19.9254 10.8922C19.9254 11.6419 20.5357 12.2526 21.2854 12.2526ZM15.9541 17.9129C16.7034 17.9129 17.3137 17.3022 17.3137 16.5529C17.3137 15.8029 16.7034 15.1926 15.9538 15.1926C15.2044 15.1926 14.5938 15.8029 14.5938 16.5526C14.5938 17.3022 15.2044 17.9126 15.9538 17.9126" fill="#FF8F4E"/>
<path fill-rule="evenodd" clip-rule="evenodd" d="M13.8794 8.62988C13.7577 8.90655 13.6894 9.21122 13.6894 9.53188C13.6894 9.92188 13.7894 10.2895 13.9644 10.6102H12.3877C11.8767 10.6102 11.4384 10.9279 11.2927 11.4169L10.3434 14.3509C10.2947 14.4732 10.3917 14.6199 10.5381 14.6199H14.8004C14.1427 15.0136 13.7001 15.7312 13.7001 16.5522C13.7001 17.7949 14.7111 18.8059 15.9534 18.8059C17.1961 18.8059 18.2071 17.7949 18.2071 16.5525C18.2071 15.7312 17.7644 15.0136 17.1064 14.6199H21.3687C21.5147 14.6199 21.6124 14.4732 21.5634 14.3509L21.1721 13.1402C21.2094 13.1419 21.2471 13.1455 21.2851 13.1455C21.9641 13.1455 22.5724 12.8425 22.9861 12.3655L23.2921 13.3242H24.5331C25.0684 13.3242 25.5307 13.7885 25.4824 14.3262V14.8885C25.4824 15.4265 25.0441 15.8665 24.5087 15.8665H24.1677C24.3627 16.7959 24.4844 17.7249 24.4844 18.6539V23.3972C24.4844 23.9349 24.0461 24.3752 23.5111 24.3752H21.8557C21.3201 24.3752 20.8821 23.9352 20.8821 23.3969V21.8569H11.0004V23.3969C11.0004 23.9349 10.5624 24.3752 10.0271 24.3752H8.39639C7.86072 24.3752 7.42272 23.9352 7.42272 23.3969V18.6299C7.42272 17.6766 7.52006 16.7472 7.71472 15.8429H7.37372C6.83839 15.8429 6.40039 15.4029 6.40039 14.8645V14.3022C6.40039 13.7645 6.83839 13.3245 7.37372 13.3245H8.61539L9.41872 10.8059C9.83206 9.51022 11.0247 8.63022 12.3881 8.63022L13.8794 8.62988ZM22.0504 17.6516C22.0504 17.2849 21.7094 17.0159 21.3444 17.0649L19.4951 17.3582C19.2517 17.3826 19.0564 17.5782 19.0077 17.8225L18.8864 18.4582C18.7887 18.8492 19.0811 19.1915 19.4707 19.1915H21.4661C21.8071 19.1915 22.0747 18.9229 22.0747 18.5805H22.0504V17.6516ZM10.5137 17.0402C10.1487 16.9669 9.80772 17.2606 9.80772 17.6269V18.5802C9.80772 18.9229 10.0757 19.1919 10.4161 19.1919H12.4124C12.7771 19.1919 13.0691 18.8252 12.9964 18.4339L12.8501 17.7982C12.8014 17.5539 12.6067 17.3825 12.3634 17.3335L10.5137 17.0402ZM19.5194 8.62988C19.8571 8.62988 20.1847 8.68422 20.4921 8.78522C19.7247 9.07522 19.1567 9.77088 19.0507 10.6102H17.9211C18.0964 10.2895 18.1967 9.92222 18.1967 9.53222C18.1967 9.21122 18.1281 8.90655 18.0067 8.62988H19.5194Z" fill="#221E1F"/>
</svg>
