<svg width="32" height="33" viewBox="0 0 32 33" fill="none" xmlns="http://www.w3.org/2000/svg">
<path d="M20.4332 22.5177C20.4332 22.1382 20.7484 21.8302 21.1372 21.8302H24.7079C25.097 21.8302 25.4119 22.1382 25.4119 22.5177V23.4014C25.4119 23.7811 25.097 24.0889 24.7079 24.0889H21.1372C20.7484 24.0889 20.4332 23.7811 20.4332 23.4014V22.5177ZM20.4332 10.2571C20.4332 9.8774 20.7484 9.5694 21.1372 9.5694H24.7079C25.097 9.5694 25.4119 9.8774 25.4119 10.2571V11.1406C25.4119 11.5206 25.097 11.8281 24.7079 11.8281H21.1372C20.7484 11.8281 20.4332 11.5206 20.4332 11.1406V10.2571ZM6.58789 22.5177C6.58789 22.1382 6.90309 21.8302 7.29189 21.8302H10.8626C11.2511 21.8302 11.5663 22.1382 11.5663 22.5177V23.4014C11.5663 23.7811 11.2511 24.0889 10.8623 24.0889H7.29242C6.90362 24.0889 6.58842 23.7811 6.58842 23.4014V22.5177H6.58789ZM6.58789 10.2571C6.58789 9.8774 6.90309 9.5694 7.29189 9.5694H10.8626C11.2511 9.5694 11.5663 9.8774 11.5663 10.2571V11.1406C11.5663 11.5206 11.2511 11.8281 10.8623 11.8281H7.29242C6.90362 11.8281 6.58842 11.5206 6.58842 11.1406V10.2571H6.58789Z" fill="#221E1F"/>
<path d="M10.4148 15.767C10.4148 15.376 10.1022 15.0587 9.71611 15.0587H9.51825V12.688H8.52011V15.0587H8.32171C7.93585 15.0587 7.62305 15.376 7.62305 15.7672V17.8918C7.62305 18.283 7.93585 18.5998 8.32171 18.5998H8.52011V20.9704H9.51825V18.6H9.71611C10.1022 18.6 10.4148 18.283 10.4148 17.8918V17.3355H16.1926V18.0184C16.1926 18.2979 16.4161 18.5243 16.6916 18.5243H20.4446C20.7201 18.5243 20.9433 18.2976 20.9433 18.0184V17.3355H22.2612V20.9707H23.2593V12.6883H22.2612V16.3235H20.9433V15.6408C20.9433 15.3608 20.7198 15.135 20.4446 15.135H16.6918C16.4161 15.135 16.1929 15.3611 16.1929 15.6408V16.3235H10.4148V15.7672V15.767Z" fill="#FF8F4E"/>
</svg>
