<svg width="30" height="31" viewBox="0 0 30 31" fill="none" xmlns="http://www.w3.org/2000/svg">
<g clip-path="url(#clip0_155_2758)">
<g clip-path="url(#clip1_155_2758)">
<path fill-rule="evenodd" clip-rule="evenodd" d="M17.8246 6.14845L27.7151 25.9295C27.9559 26.411 28.0696 26.946 28.0454 27.4838C28.0212 28.0216 27.8599 28.5442 27.5769 29.0021C27.2939 29.4601 26.8985 29.838 26.4283 30.1001C25.9581 30.3622 25.4287 30.4998 24.8904 30.4998H5.10935C4.57104 30.4998 4.04164 30.3622 3.57144 30.1001C3.10125 29.838 2.70587 29.4601 2.42284 29.0021C2.13982 28.5442 1.97856 28.0216 1.95436 27.4838C1.93017 26.946 2.04385 26.411 2.28462 25.9295L12.1751 6.14845C12.4374 5.62378 12.8405 5.18251 13.3395 4.87411C13.8384 4.5657 14.4133 4.40234 14.9999 4.40234C15.5864 4.40234 16.1614 4.5657 16.6603 4.87411C17.1592 5.18251 17.5624 5.62378 17.8246 6.14845Z" fill="#00BB36"/>
<path d="M12.2362 23.7356L9.47307 20.9858L8.55176 21.9024L12.2362 25.5679L20.131 17.7127L19.2097 16.7969L12.2362 23.7356Z" fill="black"/>
</g>
</g>
<defs>
<clipPath id="clip0_155_2758">
<rect width="30" height="30" fill="white" transform="translate(0 0.5)"/>
</clipPath>
<clipPath id="clip1_155_2758">
<rect width="30" height="30" fill="white" transform="translate(0 0.5)"/>
</clipPath>
</defs>
</svg>
