<svg width="24" height="25" viewBox="0 0 24 25" fill="none" xmlns="http://www.w3.org/2000/svg">
<path d="M20.6118 11.9715H19.3596L18.5472 9.48921C18.3054 8.75524 17.8002 8.15068 17.1631 7.78369C16.9435 8.40951 16.6139 8.97093 16.1964 9.46764C16.4164 9.59706 16.592 9.81306 16.6579 10.0722L17.6027 12.9865C17.6465 13.1162 17.5365 13.2457 17.4049 13.2457H6.57457C6.44272 13.2457 6.33305 13.1162 6.3771 12.9865L7.32161 10.1153C7.4094 9.87777 7.56312 9.66177 7.78277 9.51078C7.36535 9.01407 7.03604 8.45296 6.83796 7.80526C6.2012 8.17225 5.69568 8.77681 5.45416 9.51078L4.6415 11.9934H3.38895C2.83968 11.9931 2.40039 12.4251 2.40039 12.9647V13.5045C2.40039 14.044 2.83968 14.476 3.38895 14.476H3.74044C3.54297 15.3826 3.433 16.2897 3.433 17.1962V21.838C3.433 22.3775 3.87229 22.8095 4.42156 22.8095H6.06905C6.61831 22.8095 7.05761 22.3775 7.05761 21.838V20.3481H16.9432V21.838C16.9432 22.3775 17.3825 22.8095 17.9317 22.8095H19.5792C20.1285 22.8095 20.5678 22.3775 20.5678 21.838V17.1747C20.5678 16.2678 20.4581 15.3397 20.2603 14.4545H20.6118C21.1611 14.4545 21.6004 14.0225 21.6004 13.4829V12.9431C21.5785 12.4035 21.1389 11.9715 20.6118 11.9715ZM8.46358 17.6927H6.46459C6.13497 17.6927 5.87128 17.4338 5.87128 17.11V16.1816C5.87128 15.8146 6.2009 15.5339 6.57426 15.5986L8.41953 15.9009C8.66135 15.944 8.85882 16.1166 8.92475 16.3541L9.05659 16.9802C9.12252 17.3472 8.83695 17.6927 8.46358 17.6927ZM18.1295 17.11C18.1295 17.4338 17.8658 17.6927 17.5143 17.6927H15.5372C15.142 17.6927 14.8561 17.3472 14.9442 16.9802L15.076 16.3544C15.1198 16.1169 15.3176 15.9443 15.5591 15.9009L17.4265 15.5986C17.8002 15.5339 18.1295 15.8143 18.1295 16.1816V17.11Z" fill="#221E1F"/>
<path d="M15.2205 3.56222C14.2332 3.47321 13.31 3.02875 12.6018 2.31787L12.4086 2.11766C12.3011 2.00678 12.151 1.93994 12.0006 1.93994C11.8502 1.93994 11.6998 2.00678 11.5926 2.11766L11.3997 2.31787C10.6912 3.05093 9.76829 3.49538 8.78095 3.56222C8.48019 3.5844 8.24414 3.85083 8.24414 4.16222V5.34004C8.24414 7.87341 9.57477 10.2288 11.7214 11.4734C11.8074 11.5178 11.9146 11.5399 12.0006 11.5399C12.1078 11.5399 12.1938 11.5178 12.2798 11.4731C14.4261 10.2288 15.7571 7.87311 15.7571 5.34004V4.16222C15.7571 3.85113 15.521 3.5844 15.2205 3.56222ZM13.8036 5.82855L11.8934 7.96212C11.8074 8.07331 11.6786 8.11766 11.5501 8.11766C11.421 8.11766 11.2921 8.05083 11.2065 7.96212L10.1976 6.82895C10.0256 6.62875 10.0256 6.31766 10.2188 6.13994C10.412 5.96222 10.7125 5.96222 10.8841 6.16212L11.5498 6.89549L13.1167 5.16202C13.2887 4.96212 13.5892 4.96212 13.7821 5.13984C13.9756 5.31787 13.9968 5.62865 13.8036 5.82855Z" fill="#FF8F4E"/>
</svg>
