<svg width="32" height="33" viewBox="0 0 32 33" fill="none" xmlns="http://www.w3.org/2000/svg">
<path d="M24.5921 15.4835H23.3368L22.5341 12.9667C22.1226 11.6779 20.9289 10.8184 19.5502 10.8184H19.427C19.6942 11.2889 19.6942 11.862 19.4472 12.3326C19.3651 12.5167 19.2417 12.66 19.0977 12.7826H19.5707C20.0854 12.7826 20.5174 13.11 20.6823 13.5806L21.6287 16.5067C21.6698 16.6295 21.5668 16.7726 21.4228 16.7726H10.5783C10.4343 16.7726 10.3313 16.6295 10.3724 16.5067L11.3191 13.5806C11.4837 13.11 11.916 12.7826 12.4304 12.7826H13.3152L12.6363 11.7803C12.4509 11.4935 12.348 11.1664 12.3685 10.8389C11.0308 10.8799 9.8785 11.7389 9.46702 12.9872L8.64376 15.504H7.38818C6.85323 15.504 6.40039 15.9544 6.40039 16.4861V17.0388C6.40039 17.5914 6.83239 18.0209 7.38818 18.0209H7.73807C7.53218 18.9209 7.42923 19.842 7.42923 20.7831V25.5098C7.42923 26.0416 7.86155 26.4919 8.41702 26.4919H10.0635C10.5985 26.4919 11.0513 26.0416 11.0513 25.5098V23.9956H20.9494V25.5098C20.9494 26.0416 21.3818 26.4919 21.9372 26.4919H23.5838C24.1187 26.4919 24.5715 26.0416 24.5715 25.5098V20.7424C24.5715 19.8215 24.4686 18.9007 24.2627 17.9798H24.6126C25.1475 17.9798 25.6004 17.5504 25.6004 16.9977V16.4451C25.5799 15.9133 25.1475 15.4835 24.5921 15.4835ZM12.4506 21.2741H10.4545C10.1251 21.2741 9.85765 21.0083 9.85765 20.6808V19.7397C9.85765 19.3712 10.187 19.0848 10.5574 19.146L12.4095 19.453C12.6565 19.494 12.8621 19.6781 12.9031 19.9235L13.0266 20.5583C13.109 20.9265 12.821 21.2741 12.4506 21.2741ZM22.1431 20.6808C22.1431 21.0083 21.8757 21.2745 21.5463 21.2745H19.5505C19.1592 21.2745 18.8712 20.9265 18.9537 20.5579L19.0768 19.9238C19.1387 19.6781 19.3238 19.4944 19.5707 19.4533L21.4228 19.1464C21.7932 19.0848 22.1226 19.3712 22.1226 19.7397V20.6808H22.1431Z" fill="#221E1F"/>
<path d="M16.3733 15.3496C16.5808 15.6631 17.0788 15.5169 17.0788 15.1405V12.0464H18.0745C18.4478 12.0464 18.6758 11.6283 18.4686 11.3147L15.6265 7.07081C15.4193 6.75723 14.9213 6.90345 14.9213 7.27987V10.3531H13.9257C13.5524 10.3531 13.3244 10.7712 13.5316 11.0848L16.3733 15.3496Z" fill="#FF8F4E"/>
</svg>
