<svg width="32" height="33" viewBox="0 0 32 33" fill="none" xmlns="http://www.w3.org/2000/svg">
<path d="M24.6003 16.1979H23.3561L22.5559 13.6526C22.1782 12.4691 21.156 11.6426 19.956 11.4863C19.8227 12.2234 19.5783 12.9156 19.1337 13.4515H19.5783C20.0671 13.4515 20.5114 13.7641 20.6892 14.2552L21.6227 17.2027C21.6669 17.3366 21.5561 17.4705 21.4225 17.4705H10.5562C10.4226 17.4705 10.3114 17.3366 10.356 17.2027L11.2891 14.2552C11.4448 13.7641 11.8891 13.4515 12.4004 13.4515H12.8671L12.6448 13.1834C12.2447 12.7144 12.0006 12.1564 11.9337 11.5312V11.5091C10.7782 11.6875 9.8005 12.5136 9.44492 13.6523L8.64471 16.1979H7.4005C6.84471 16.1979 6.40039 16.6444 6.40039 17.1803V17.7386C6.40039 18.2745 6.84471 18.7211 7.4005 18.7211H7.75607C7.55586 19.6369 7.44471 20.552 7.44471 21.5123V26.2905C7.44471 26.8264 7.88934 27.2733 8.42271 27.2733H10.067C10.6004 27.2733 11.0447 26.8264 11.0447 26.2905V24.7498H20.9561V26.2909C20.9561 26.8264 21.4004 27.273 21.9338 27.273H23.5781C24.1118 27.273 24.5561 26.8264 24.5561 26.2909V21.5341C24.5561 20.5962 24.4449 19.6583 24.2447 18.7432H24.6003C25.1561 18.7432 25.6004 18.2966 25.6004 17.7607V17.2024C25.5783 16.6441 25.1337 16.1979 24.6003 16.1979ZM12.4225 22.0703H10.4226C10.0891 22.0703 9.8226 21.8025 9.8226 21.4675V20.5296C9.8226 20.15 10.1561 19.8601 10.5117 19.9267L12.378 20.2173C12.6227 20.2618 12.8226 20.4405 12.8895 20.6859L13.0225 21.3112C13.1115 21.7132 12.8226 22.0703 12.4225 22.0703ZM22.1337 21.4675C22.1337 21.8022 21.8671 22.0706 21.5337 22.0706H19.5341C19.1564 22.0706 18.8674 21.7132 18.9341 21.3336L19.0673 20.7083C19.134 20.4626 19.3118 20.2618 19.5786 20.2394L21.4449 19.9492C21.8008 19.8822 22.134 20.1724 22.134 20.5523V21.4675H22.1337Z" fill="#221E1F"/>
<path d="M13.653 12.2094C14.746 10.8029 15.9917 10.0886 16.407 9.86534C15.5329 10.8032 14.2871 12.4997 13.7844 14.8883C13.6969 15.2679 13.959 15.6696 14.3307 15.7368C14.4182 15.7589 14.5274 15.7589 14.6149 15.7368C14.877 15.692 15.1176 15.4687 15.1612 15.1785C15.3144 14.4866 15.5329 13.8617 15.795 13.3033C16.6255 13.4148 17.4782 13.2364 18.0027 12.6781C19.161 11.4727 18.7896 8.14681 18.3305 6.24892C18.243 5.91418 17.8063 5.82513 17.631 6.11534C16.0574 8.52608 13.0192 9.08439 13.2377 11.2722C13.2816 11.6069 13.4345 11.9413 13.653 12.2094Z" fill="#FF8F4E"/>
</svg>
